<?xml version="1.0" encoding="UTF-8"?>
<svg xmlns="http://www.w3.org/2000/svg" xmlns:xlink="http://www.w3.org/1999/xlink" width="40px" height="40px" viewBox="0 0 48 48" version="1.1">
<g id="surface1">
<path style=" stroke:none;fill-rule:nonzero;fill:rgb(0%,81.176471%,40%);fill-opacity:1;" d="M 42 17 L 42 11 C 42 10.46875 41.789062 9.960938 41.414062 9.585938 C 41.039062 9.210938 40.53125 9 40 9 L 8 9 C 7.46875 9 6.960938 9.210938 6.585938 9.585938 C 6.210938 9.960938 6 10.46875 6 11 L 6 17 Z M 42 17 "/>
<path style=" stroke:none;fill-rule:nonzero;fill:rgb(0%,69.411765%,34.117647%);fill-opacity:1;" d="M 4 19 L 4 15 C 4 14.46875 4.210938 13.960938 4.585938 13.585938 C 4.960938 13.210938 5.46875 13 6 13 L 42 13 C 42.53125 13 43.039062 13.210938 43.414062 13.585938 C 43.789062 13.960938 44 14.46875 44 15 L 44 19 Z M 4 19 "/>
<path style=" stroke:none;fill-rule:nonzero;fill:rgb(0%,81.176471%,40%);fill-opacity:1;" d="M 44 17 L 4 17 C 2.894531 17 2 17.894531 2 19 L 2 37 C 2 38.105469 2.894531 39 4 39 L 44 39 C 45.105469 39 46 38.105469 46 37 L 46 19 C 46 17.894531 45.105469 17 44 17 Z M 44 17 "/>
<path style=" stroke:none;fill-rule:nonzero;fill:rgb(98.039216%,75.686275%,0%);fill-opacity:1;" d="M 24 36 C 28.417969 36 32 32.417969 32 28 C 32 23.582031 28.417969 20 24 20 C 19.582031 20 16 23.582031 16 28 C 16 32.417969 19.582031 36 24 36 Z M 24 36 "/>
<path style=" stroke:none;fill-rule:nonzero;fill:rgb(0%,0%,0%);fill-opacity:1;" d="M 45 16.175781 L 45 15 C 45 14.378906 44.804688 13.777344 44.449219 13.269531 C 44.089844 12.765625 43.585938 12.382812 43 12.175781 L 43 11 C 43 10.203125 42.683594 9.441406 42.121094 8.878906 C 41.558594 8.316406 40.796875 8 40 8 L 8 8 C 7.203125 8 6.441406 8.316406 5.878906 8.878906 C 5.316406 9.441406 5 10.203125 5 11 L 5 12.175781 C 4.414062 12.382812 3.910156 12.765625 3.550781 13.269531 C 3.195312 13.777344 3 14.378906 3 15 L 3 16.175781 C 2.414062 16.382812 1.910156 16.765625 1.550781 17.269531 C 1.195312 17.777344 1 18.378906 1 19 L 1 37 C 1 37.796875 1.316406 38.558594 1.878906 39.121094 C 2.441406 39.683594 3.203125 40 4 40 L 44 40 C 44.796875 40 45.558594 39.683594 46.121094 39.121094 C 46.683594 38.558594 47 37.796875 47 37 L 47 19 C 47 18.378906 46.804688 17.777344 46.449219 17.269531 C 46.089844 16.765625 45.585938 16.382812 45 16.175781 Z M 8 10 L 40 10 C 40.265625 10 40.519531 10.105469 40.707031 10.292969 C 40.894531 10.480469 41 10.734375 41 11 L 41 12 L 7 12 L 7 11 C 7 10.734375 7.105469 10.480469 7.292969 10.292969 C 7.480469 10.105469 7.734375 10 8 10 Z M 6 14 L 42 14 C 42.265625 14 42.519531 14.105469 42.707031 14.292969 C 42.894531 14.480469 43 14.734375 43 15 L 43 16 L 5 16 L 5 15 C 5 14.734375 5.105469 14.480469 5.292969 14.292969 C 5.480469 14.105469 5.734375 14 6 14 Z M 45 37 C 45 37.265625 44.894531 37.519531 44.707031 37.707031 C 44.519531 37.894531 44.265625 38 44 38 L 4 38 C 3.734375 38 3.480469 37.894531 3.292969 37.707031 C 3.105469 37.519531 3 37.265625 3 37 L 3 19 C 3 18.734375 3.105469 18.480469 3.292969 18.292969 C 3.480469 18.105469 3.734375 18 4 18 L 44 18 C 44.265625 18 44.519531 18.105469 44.707031 18.292969 C 44.894531 18.480469 45 18.734375 45 19 Z M 45 37 "/>
<path style=" stroke:none;fill-rule:nonzero;fill:rgb(0%,0%,0%);fill-opacity:1;" d="M 14 34 L 9.875 34 C 9.695312 33.308594 9.332031 32.679688 8.828125 32.171875 C 8.320312 31.667969 7.691406 31.304688 7 31.125 L 7 24.875 C 7.691406 24.691406 8.320312 24.332031 8.828125 23.828125 C 9.332031 23.320312 9.695312 22.691406 9.875 22 L 14 22 C 14.261719 21.996094 14.515625 21.890625 14.699219 21.703125 C 14.886719 21.515625 14.992188 21.261719 14.992188 21 C 14.992188 20.734375 14.886719 20.484375 14.699219 20.296875 C 14.515625 20.109375 14.261719 20.003906 14 20 L 9 20 C 8.867188 20 8.738281 20.027344 8.617188 20.074219 C 8.496094 20.125 8.386719 20.199219 8.292969 20.292969 C 8.199219 20.386719 8.125 20.496094 8.074219 20.617188 C 8.027344 20.738281 8 20.867188 8 21 C 8 21.53125 7.789062 22.039062 7.414062 22.414062 C 7.039062 22.789062 6.53125 23 6 23 C 5.734375 23 5.480469 23.105469 5.292969 23.292969 C 5.105469 23.480469 5 23.734375 5 24 L 5 32 C 5 32.132812 5.027344 32.261719 5.074219 32.382812 C 5.125 32.503906 5.199219 32.613281 5.292969 32.707031 C 5.386719 32.800781 5.496094 32.875 5.617188 32.925781 C 5.738281 32.972656 5.867188 33 6 33 C 6.53125 33 7.039062 33.210938 7.414062 33.585938 C 7.789062 33.960938 8 34.46875 8 35 C 8 35.265625 8.105469 35.519531 8.292969 35.707031 C 8.480469 35.894531 8.734375 36 9 36 L 14 36 C 14.132812 36 14.261719 35.976562 14.386719 35.925781 C 14.507812 35.878906 14.621094 35.804688 14.714844 35.710938 C 14.808594 35.617188 14.882812 35.507812 14.933594 35.386719 C 14.984375 35.261719 15.007812 35.132812 15.007812 35 C 15.007812 34.867188 14.984375 34.738281 14.933594 34.613281 C 14.882812 34.492188 14.808594 34.382812 14.714844 34.289062 C 14.621094 34.195312 14.507812 34.121094 14.386719 34.074219 C 14.261719 34.023438 14.132812 34 14 34 Z M 14 34 "/>
<path style=" stroke:none;fill-rule:nonzero;fill:rgb(0%,0%,0%);fill-opacity:1;" d="M 42 23 C 41.46875 23 40.960938 22.789062 40.585938 22.414062 C 40.210938 22.039062 40 21.53125 40 21 C 40 20.734375 39.894531 20.480469 39.707031 20.292969 C 39.519531 20.105469 39.265625 20 39 20 L 34 20 C 33.867188 20 33.738281 20.023438 33.613281 20.074219 C 33.492188 20.121094 33.378906 20.195312 33.285156 20.289062 C 33.191406 20.382812 33.117188 20.492188 33.066406 20.613281 C 33.015625 20.738281 32.992188 20.867188 32.992188 21 C 32.992188 21.132812 33.015625 21.261719 33.066406 21.386719 C 33.117188 21.507812 33.191406 21.617188 33.285156 21.710938 C 33.378906 21.804688 33.492188 21.875 33.613281 21.925781 C 33.738281 21.976562 33.867188 22 34 22 L 38.125 22 C 38.304688 22.691406 38.667969 23.320312 39.171875 23.828125 C 39.679688 24.332031 40.308594 24.695312 41 24.875 L 41 31.125 C 40.308594 31.308594 39.679688 31.667969 39.171875 32.171875 C 38.667969 32.679688 38.304688 33.308594 38.125 34 L 34 34 C 33.867188 34 33.738281 34.023438 33.613281 34.074219 C 33.492188 34.125 33.378906 34.195312 33.285156 34.289062 C 33.191406 34.382812 33.117188 34.492188 33.066406 34.613281 C 33.015625 34.738281 32.992188 34.867188 32.992188 35 C 32.992188 35.132812 33.015625 35.261719 33.066406 35.386719 C 33.117188 35.507812 33.191406 35.617188 33.285156 35.710938 C 33.378906 35.804688 33.492188 35.878906 33.613281 35.925781 C 33.738281 35.976562 33.867188 36 34 36 L 39 36 C 39.265625 36 39.519531 35.894531 39.707031 35.707031 C 39.894531 35.519531 40 35.265625 40 35 C 40 34.46875 40.210938 33.960938 40.585938 33.585938 C 40.960938 33.210938 41.46875 33 42 33 C 42.265625 33 42.519531 32.894531 42.707031 32.707031 C 42.894531 32.519531 43 32.265625 43 32 L 43 24 C 43 23.734375 42.894531 23.480469 42.707031 23.292969 C 42.519531 23.105469 42.265625 23 42 23 Z M 42 23 "/>
<path style=" stroke:none;fill-rule:nonzero;fill:rgb(0%,0%,0%);fill-opacity:1;" d="M 24 19 C 22.21875 19 20.480469 19.527344 19 20.515625 C 17.519531 21.503906 16.367188 22.910156 15.683594 24.554688 C 15.003906 26.199219 14.824219 28.011719 15.171875 29.757812 C 15.519531 31.5 16.378906 33.105469 17.636719 34.363281 C 18.894531 35.621094 20.5 36.480469 22.246094 36.828125 C 23.988281 37.175781 25.800781 36.996094 27.445312 36.316406 C 29.089844 35.632812 30.496094 34.480469 31.484375 33 C 32.472656 31.519531 33 29.78125 33 28 C 32.996094 25.613281 32.046875 23.328125 30.359375 21.640625 C 28.671875 19.953125 26.386719 19.003906 24 19 Z M 24 35 C 22.617188 35 21.261719 34.589844 20.109375 33.820312 C 18.960938 33.050781 18.0625 31.957031 17.53125 30.679688 C 17.003906 29.398438 16.863281 27.992188 17.132812 26.632812 C 17.40625 25.277344 18.070312 24.027344 19.050781 23.050781 C 20.027344 22.070312 21.277344 21.40625 22.632812 21.132812 C 23.992188 20.863281 25.398438 21.003906 26.679688 21.53125 C 27.957031 22.0625 29.050781 22.960938 29.820312 24.109375 C 30.589844 25.261719 31 26.617188 31 28 C 30.996094 29.855469 30.261719 31.636719 28.949219 32.949219 C 27.636719 34.257812 25.855469 34.996094 24 35 Z M 24 35 "/>
<path style=" stroke:none;fill-rule:nonzero;fill:rgb(0%,0%,0%);fill-opacity:1;" d="M 24.707031 27.179688 C 24.59375 27.136719 24.492188 27.097656 24.402344 27.058594 C 24.300781 27.015625 24.175781 26.96875 24.039062 26.914062 C 23.378906 26.664062 23 26.46875 23 26.210938 C 23 26.136719 23.117188 25.9375 23.40625 25.792969 C 23.621094 25.6875 24.394531 25.390625 25.40625 26.132812 C 25.621094 26.289062 25.886719 26.351562 26.148438 26.3125 C 26.410156 26.273438 26.644531 26.128906 26.800781 25.917969 C 26.957031 25.703125 27.023438 25.4375 26.984375 25.175781 C 26.945312 24.914062 26.804688 24.679688 26.59375 24.523438 C 26.117188 24.167969 25.574219 23.910156 25 23.757812 L 25 23 C 24.996094 22.738281 24.890625 22.484375 24.703125 22.300781 C 24.515625 22.113281 24.261719 22.011719 24 22.011719 C 23.738281 22.011719 23.484375 22.113281 23.296875 22.300781 C 23.109375 22.484375 23.003906 22.738281 23 23 L 23 23.804688 C 22.828125 23.859375 22.664062 23.929688 22.503906 24.007812 C 21.574219 24.476562 21 25.320312 21 26.210938 C 21 27.898438 22.574219 28.5 23.328125 28.785156 C 23.429688 28.824219 23.519531 28.855469 23.597656 28.890625 C 23.714844 28.941406 23.847656 28.992188 23.992188 29.050781 C 24.765625 29.34375 25 29.503906 25 29.738281 C 25 29.8125 24.878906 30.011719 24.59375 30.15625 C 24.378906 30.265625 23.601562 30.558594 22.59375 29.816406 C 22.378906 29.660156 22.109375 29.59375 21.847656 29.632812 C 21.585938 29.675781 21.351562 29.816406 21.195312 30.03125 C 21.035156 30.242188 20.972656 30.511719 21.011719 30.773438 C 21.050781 31.035156 21.195312 31.269531 21.40625 31.429688 C 21.882812 31.78125 22.425781 32.035156 23 32.179688 L 23 33 C 23.003906 33.261719 23.109375 33.515625 23.296875 33.699219 C 23.484375 33.886719 23.734375 33.992188 24 33.992188 C 24.261719 33.992188 24.515625 33.886719 24.703125 33.699219 C 24.890625 33.515625 24.996094 33.261719 25 33 L 25 32.140625 C 25.171875 32.085938 25.335938 32.019531 25.496094 31.941406 C 26.421875 31.472656 27 30.628906 27 29.738281 C 27 28.058594 25.449219 27.464844 24.707031 27.179688 Z M 24.707031 27.179688 "/>
</g>
</svg>
